<svg width="28" height="31" viewBox="0 0 28 31" fill="none" xmlns="http://www.w3.org/2000/svg">
<path fill-rule="evenodd" clip-rule="evenodd" d="M0.452338 0H27.5502C27.7976 0 28 0.202428 28 0.449839V30.2567C28 30.5041 27.7976 30.7065 27.5477 30.7065H0.449839C0.202428 30.7065 0 30.5041 0 30.2567L0 0.449839C0 0.202428 0.202428 0 0.452338 0ZM7.25491 1.97429H20.8026V13.9975H7.25491V1.97429ZM7.25491 16.3966H20.8026V28.4223H7.25491V16.3966ZM1.97929 26.0507H5.65298V28.4848H1.97929V26.0507ZM22.472 26.0507H26.1457V28.4848H22.472V26.0507ZM22.472 1.9568H26.1457V4.39093H22.472V1.9568ZM22.472 6.77508H26.1457V9.20921H22.472V6.77508ZM22.472 11.5934H26.1457V14.0275H22.472V11.5934ZM22.472 16.4116H26.1457V18.8458H22.472V16.4116ZM22.472 21.2324H26.1457V23.6665H22.472V21.2324ZM1.97929 1.9568H5.65298V4.39093H1.97929V1.9568ZM1.97929 6.77508H5.65298V9.20921H1.97929V6.77508ZM1.97929 11.5934H5.65298V14.0275H1.97929V11.5934ZM1.97929 16.4116H5.65298V18.8458H1.97929V16.4116ZM1.97929 21.2324H5.65298V23.6665H1.97929V21.2324Z" fill="#FEA500"/>
</svg>
