<svg width="20" height="20" viewBox="0 0 20 20" fill="none" xmlns="http://www.w3.org/2000/svg">
<path d="M12.6451 0.428028C12.1199 0.273892 11.5805 0.173379 11.0351 0.128028C9.82829 -0.013903 8.60541 0.0812105 7.43508 0.408028L7.36508 0.428028C5.26688 1.00418 3.41606 2.25367 2.09728 3.98433C0.778491 5.71499 0.0647831 7.83098 0.0659193 10.0068C0.0670555 12.1827 0.782973 14.2979 2.10356 16.0272C3.42415 17.7565 5.27628 19.0041 7.37508 19.578C8.14341 19.7945 8.9369 19.9088 9.73508 19.918C9.82411 19.9343 9.91462 19.941 10.0051 19.938C10.8941 19.9398 11.7792 19.8186 12.6351 19.578C14.7321 19.0021 16.5821 17.7537 17.901 16.0247C19.2199 14.2957 19.9348 12.1815 19.9359 10.0068C19.937 7.83219 19.2243 5.71728 17.9072 3.98685C16.5902 2.25643 14.7415 1.00616 12.6451 0.428028ZM12.3751 1.38803C13.6698 1.74644 14.8672 2.39194 15.8782 3.2766C16.8892 4.16125 17.688 5.26233 18.2151 6.49803H13.9551C13.4466 4.53477 12.511 2.70797 11.2151 1.14803C11.607 1.20014 11.9947 1.28035 12.3751 1.38803ZM10.0051 1.29803C11.3713 2.77785 12.3684 4.55961 12.9151 6.49803H7.07508C7.61947 4.55493 8.62457 2.77183 10.0051 1.30003V1.29803ZM13.1651 7.49803C13.4851 9.1527 13.4851 10.8534 13.1651 12.508H6.84508C6.67582 11.6855 6.59205 10.8478 6.59508 10.008C6.59255 9.16502 6.67632 8.32397 6.84508 7.49803H13.1651ZM7.56508 1.40803L7.63508 1.38803C8.01638 1.28643 8.40386 1.20961 8.79508 1.15803C7.49213 2.71175 6.5526 4.53683 6.04508 6.50003H1.80008C2.32507 5.27804 3.11437 4.18759 4.1112 3.30713C5.10803 2.42667 6.28761 1.77809 7.56508 1.40803ZM1.06508 10.008C1.06524 9.15779 1.1899 8.31215 1.43508 7.49803H5.82508C5.67283 8.32604 5.59585 9.16614 5.59508 10.008C5.59539 10.8466 5.67237 11.6834 5.82508 12.508H1.43508C1.18918 11.6975 1.0645 10.855 1.06508 10.008ZM7.63508 18.618C6.33899 18.2625 5.14026 17.618 4.12882 16.733C3.11739 15.848 2.31952 14.7454 1.79508 13.508H6.03508C6.54786 15.4756 7.4943 17.3036 8.80508 18.858C8.40971 18.8069 8.01864 18.7267 7.63508 18.618ZM7.07508 13.508H12.9151C12.3749 15.4521 11.3771 17.2386 10.0051 18.718C8.63313 17.2353 7.6294 15.4505 7.07508 13.508ZM12.3751 18.618C11.9895 18.7182 11.599 18.7983 11.2051 18.858C12.504 17.2986 13.443 15.4719 13.9551 13.508H18.2151C17.6891 14.7445 16.8908 15.8462 15.8796 16.731C14.8684 17.6158 13.6704 18.2609 12.3751 18.618ZM14.1751 12.508C14.4851 10.8524 14.4851 9.15364 14.1751 7.49803H18.5651C18.8151 8.31106 18.9399 9.15743 18.9351 10.008C18.9375 10.8545 18.8162 11.6967 18.5751 12.508H14.1751Z" fill="#5C6671"/>
</svg>
