<svg width="16" height="16" viewBox="0 0 16 16" fill="none" xmlns="http://www.w3.org/2000/svg">
<path d="M8.00371 3.95702C5.76777 3.95702 3.96426 5.76053 3.96426 7.99647C3.96426 10.2324 5.76777 12.0359 8.00371 12.0359C10.2396 12.0359 12.0432 10.2324 12.0432 7.99647C12.0432 5.76053 10.2396 3.95702 8.00371 3.95702ZM8.00371 10.6226C6.55879 10.6226 5.37754 9.44491 5.37754 7.99647C5.37754 6.54803 6.55527 5.3703 8.00371 5.3703C9.45215 5.3703 10.6299 6.54803 10.6299 7.99647C10.6299 9.44491 9.44863 10.6226 8.00371 10.6226ZM13.1506 3.79178C13.1506 4.31561 12.7287 4.73397 12.2084 4.73397C11.6846 4.73397 11.2662 4.3121 11.2662 3.79178C11.2662 3.27147 11.6881 2.8496 12.2084 2.8496C12.7287 2.8496 13.1506 3.27147 13.1506 3.79178ZM15.826 4.74803C15.7662 3.48593 15.4779 2.36796 14.5533 1.44686C13.6322 0.525769 12.5143 0.237488 11.2521 0.174207C9.95137 0.100378 6.05254 0.100378 4.75176 0.174207C3.49316 0.233972 2.3752 0.522253 1.45059 1.44335C0.525977 2.36444 0.241211 3.48241 0.17793 4.74452C0.104102 6.0453 0.104102 9.94413 0.17793 11.2449C0.237695 12.507 0.525977 13.625 1.45059 14.5461C2.3752 15.4672 3.48965 15.7555 4.75176 15.8187C6.05254 15.8926 9.95137 15.8926 11.2521 15.8187C12.5143 15.759 13.6322 15.4707 14.5533 14.5461C15.4744 13.625 15.7627 12.507 15.826 11.2449C15.8998 9.94413 15.8998 6.04882 15.826 4.74803ZM14.1455 12.6406C13.8713 13.3297 13.3404 13.8605 12.6479 14.1383C11.6107 14.5496 9.14981 14.4547 8.00371 14.4547C6.85762 14.4547 4.39316 14.5461 3.35957 14.1383C2.67051 13.864 2.13965 13.3332 1.86191 12.6406C1.45059 11.6035 1.54551 9.14257 1.54551 7.99647C1.54551 6.85038 1.4541 4.38593 1.86191 3.35233C2.13613 2.66327 2.66699 2.13241 3.35957 1.85468C4.39668 1.44335 6.85762 1.53827 8.00371 1.53827C9.14981 1.53827 11.6143 1.44686 12.6479 1.85468C13.3369 2.12889 13.8678 2.65975 14.1455 3.35233C14.5568 4.38944 14.4619 6.85038 14.4619 7.99647C14.4619 9.14257 14.5568 11.607 14.1455 12.6406Z" fill="#5C6671"/>
</svg>
