<svg width="16" height="16" viewBox="0 0 16 16" fill="none" xmlns="http://www.w3.org/2000/svg">
<path d="M14.75 0.125H1.24648C0.627734 0.125 0.125 0.634766 0.125 1.26055V14.7395C0.125 15.3652 0.627734 15.875 1.24648 15.875H14.75C15.3687 15.875 15.875 15.3652 15.875 14.7395V1.26055C15.875 0.634766 15.3687 0.125 14.75 0.125ZM4.88516 13.625H2.55078V6.10859H4.88867V13.625H4.88516ZM3.71797 5.08203C2.96914 5.08203 2.36445 4.47383 2.36445 3.72852C2.36445 2.9832 2.96914 2.375 3.71797 2.375C4.46328 2.375 5.07148 2.9832 5.07148 3.72852C5.07148 4.47734 4.4668 5.08203 3.71797 5.08203ZM13.6355 13.625H11.3012V9.96875C11.3012 9.09688 11.2836 7.97539 10.0883 7.97539C8.87187 7.97539 8.68555 8.92461 8.68555 9.90547V13.625H6.35117V6.10859H8.59062V7.13516H8.62227C8.93516 6.54453 9.69805 5.92227 10.8336 5.92227C13.1961 5.92227 13.6355 7.47969 13.6355 9.50469V13.625Z" fill="#5C6671"/>
</svg>
