<svg width="19" height="18" viewBox="0 0 19 18" fill="none" xmlns="http://www.w3.org/2000/svg">
<path d="M7 0.312659C7.10982 0.446098 7.17709 0.609402 7.19313 0.781471C7.20918 0.953541 7.17325 1.12647 7.09 1.27791C6.43959 2.47207 6.09993 3.81061 6.10225 5.17041C6.10225 9.69403 9.79 13.357 14.335 13.357C14.9279 13.357 15.505 13.2952 16.0596 13.177C16.2296 13.1402 16.4067 13.1543 16.5688 13.2175C16.7309 13.2807 16.8707 13.3903 16.9709 13.5325C17.0766 13.6804 17.1305 13.8591 17.1242 14.0408C17.1179 14.2225 17.0517 14.397 16.936 14.5372C16.0536 15.621 14.9405 16.4943 13.6778 17.0934C12.4151 17.6924 11.0346 18.0021 9.637 17.9999C4.45075 17.9999 0.25 13.8217 0.25 8.67366C0.25 4.79916 2.62825 1.47591 6.0145 0.0674086C6.18318 -0.0038806 6.37044 -0.0185124 6.54814 0.0257112C6.72585 0.0699347 6.88441 0.170626 7 0.312659ZM5.71525 1.47478C4.41318 2.17322 3.32467 3.21138 2.5654 4.47894C1.80613 5.7465 1.40448 7.19609 1.40312 8.67366C1.40312 13.1962 5.092 16.8592 9.637 16.8592C10.7254 16.861 11.8033 16.647 12.8084 16.2296C13.8136 15.8121 14.7259 15.1994 15.4926 14.4269C15.1135 14.4742 14.7276 14.4978 14.335 14.4978C9.14875 14.4978 4.94913 10.3195 4.94913 5.17153C4.94913 3.85866 5.22137 2.60878 5.71525 1.47478Z" fill="#001F3F"/>
<path d="M12.3932 3.54152C12.4093 3.49281 12.4404 3.45041 12.482 3.42036C12.5236 3.39031 12.5736 3.37414 12.6249 3.37414C12.6762 3.37414 12.7262 3.39031 12.7678 3.42036C12.8095 3.45041 12.8405 3.49281 12.8567 3.54152L13.292 4.84877C13.4867 5.43152 13.9434 5.88827 14.5262 6.0829L15.8334 6.51827C15.8821 6.53441 15.9245 6.56548 15.9546 6.60709C15.9846 6.64869 16.0008 6.6987 16.0008 6.75002C16.0008 6.80134 15.9846 6.85136 15.9546 6.89296C15.9245 6.93457 15.8821 6.96564 15.8334 6.98177L14.5262 7.41715C14.2387 7.51291 13.9776 7.67428 13.7634 7.8885C13.5492 8.10271 13.3878 8.36386 13.292 8.65127L12.8567 9.95852C12.8405 10.0072 12.8095 10.0496 12.7678 10.0797C12.7262 10.1097 12.6762 10.1259 12.6249 10.1259C12.5736 10.1259 12.5236 10.1097 12.482 10.0797C12.4404 10.0496 12.4093 10.0072 12.3932 9.95852L11.9578 8.65127C11.862 8.36386 11.7006 8.10271 11.4864 7.8885C11.2722 7.67428 11.0111 7.51291 10.7237 7.41715L9.41641 6.98177C9.36769 6.96564 9.32529 6.93457 9.29525 6.89296C9.2652 6.85136 9.24902 6.80134 9.24902 6.75002C9.24902 6.6987 9.2652 6.64869 9.29525 6.60709C9.32529 6.56548 9.36769 6.53441 9.41641 6.51827L10.7237 6.0829C11.0111 5.98714 11.2722 5.82577 11.4864 5.61155C11.7006 5.39734 11.862 5.13618 11.9578 4.84877L12.3932 3.54152ZM15.8458 0.111399C15.8569 0.0793665 15.8777 0.0515899 15.9053 0.0319312C15.9329 0.0122726 15.966 0.00170898 15.9999 0.00170898C16.0338 0.00170898 16.0669 0.0122726 16.0945 0.0319312C16.1221 0.0515899 16.1429 0.0793665 16.154 0.111399L16.4443 0.982149C16.5737 1.3714 16.8785 1.67627 17.2678 1.80565L18.1385 2.0959C18.1706 2.10701 18.1983 2.12782 18.218 2.15544C18.2377 2.18306 18.2482 2.21612 18.2482 2.25002C18.2482 2.28393 18.2377 2.31699 18.218 2.34461C18.1983 2.37223 18.1706 2.39304 18.1385 2.40415L17.2678 2.6944C17.076 2.75821 16.9017 2.86587 16.7587 3.00882C16.6158 3.15177 16.5081 3.32607 16.4443 3.5179L16.154 4.38865C16.1429 4.42068 16.1221 4.44846 16.0945 4.46812C16.0669 4.48778 16.0338 4.49834 15.9999 4.49834C15.966 4.49834 15.9329 4.48778 15.9053 4.46812C15.8777 4.44846 15.8569 4.42068 15.8458 4.38865L15.5555 3.5179C15.4917 3.32607 15.3841 3.15177 15.2411 3.00882C15.0982 2.86587 14.9239 2.75821 14.732 2.6944L13.8613 2.40415C13.8293 2.39304 13.8015 2.37223 13.7818 2.34461C13.7622 2.31699 13.7516 2.28393 13.7516 2.25002C13.7516 2.21612 13.7622 2.18306 13.7818 2.15544C13.8015 2.12782 13.8293 2.10701 13.8613 2.0959L14.732 1.80565C15.1213 1.67627 15.4262 1.3714 15.5555 0.982149L15.8458 0.112524V0.111399Z" fill="#001F3F"/>
</svg>
