<svg width="21" height="14" viewBox="0 0 21 14" fill="none" xmlns="http://www.w3.org/2000/svg">
<path d="M19.5531 2.2C19.3531 1.3 18.6531 0.7 17.7531 0.4C16.2531 -3.8743e-07 10.0531 0 10.0531 0C10.0531 0 3.85308 -3.8743e-07 2.25308 0.4C1.35308 0.6 0.753083 1.3 0.453083 2.2C-0.0469171 5 -0.246917 9.2 0.453083 11.8C0.653083 12.7 1.35308 13.3 2.25308 13.6C3.85308 14 10.0531 14 10.0531 14C10.0531 14 16.2531 14 17.8531 13.6C18.7531 13.4 19.3531 12.7 19.6531 11.8C20.1531 9 20.2531 4.9 19.5531 2.2ZM8.05308 10V4L13.2531 7L8.05308 10Z" fill="#5C6671"/>
</svg>
