<svg width="36" height="36" viewBox="0 0 36 36" fill="none" xmlns="http://www.w3.org/2000/svg">
<g clip-path="url(#clip0_11_1411)">
<path fill-rule="evenodd" clip-rule="evenodd" d="M6 0H30C33.3 0 36 2.7 36 6V30C36 33.3 33.3 36 30 36H6C2.7 36 0 33.3 0 30V6C0 2.7 2.7 0 6 0Z" fill="white"/>
<path fill-rule="evenodd" clip-rule="evenodd" d="M23 14.5C26.6 14.5 27.3 16.9 27.3 20V26.3H23.7V20.4C23.7 19.1 23.6 17.6 21.8 17.6C19.9 17.6 19.6 19.1 19.6 20.6V26.3H16V14.7H19.4V16.3C20.3 15.1 21.6 14.4 23 14.5ZM13.9 14.7V26.2H10.3V14.7H13.9ZM12.1 9C13.2 9 14.2 9.9 14.2 11.1C14.2 12.2 13.3 13.2 12.1 13.2C11 13.2 10 12.3 10 11.1C10 9.9 10.9 9 12.1 9Z" fill="#0366C3"/>
</g>
<rect x="0.5" y="0.5" width="35" height="35" rx="5.5" stroke="#ECECF2"/>
<defs>
<clipPath id="clip0_11_1411">
<rect width="36" height="36" rx="6" fill="white"/>
</clipPath>
</defs>
</svg>
