<svg width="36" height="36" viewBox="0 0 36 36" fill="none" xmlns="http://www.w3.org/2000/svg">
<g clip-path="url(#clip0_11_1396)">
<path fill-rule="evenodd" clip-rule="evenodd" d="M6 0H30C33.3 0 36 2.7 36 6V30C36 33.3 33.3 36 30 36H6C2.7 36 0 33.3 0 30V6C0 2.7 2.7 0 6 0Z" fill="white"/>
<path d="M27.4999 13.2C27.2999 12.3 26.5999 11.7 25.6999 11.4C24.1999 11 17.9999 11 17.9999 11C17.9999 11 11.7999 11 10.1999 11.4C9.29986 11.6 8.69986 12.3 8.39986 13.2C7.89986 16 7.69986 20.2 8.39986 22.8C8.59986 23.7 9.29986 24.3 10.1999 24.6C11.7999 25 17.9999 25 17.9999 25C17.9999 25 24.1999 25 25.7999 24.6C26.6999 24.4 27.2999 23.7 27.5999 22.8C28.0999 20 28.1999 15.9 27.4999 13.2ZM15.9999 21V15L21.1999 18L15.9999 21Z" fill="#FF0000"/>
</g>
<rect x="0.5" y="0.5" width="35" height="35" rx="5.5" stroke="#ECECF2"/>
<defs>
<clipPath id="clip0_11_1396">
<rect width="36" height="36" rx="6" fill="white"/>
</clipPath>
</defs>
</svg>
