<svg width="36" height="36" viewBox="0 0 36 36" fill="none" xmlns="http://www.w3.org/2000/svg">
<g clip-path="url(#clip0_11_1401)">
<path fill-rule="evenodd" clip-rule="evenodd" d="M6 0H30C33.3 0 36 2.7 36 6V30C36 33.3 33.3 36 30 36H6C2.7 36 0 33.3 0 30V6C0 2.7 2.7 0 6 0Z" fill="white"/>
<path d="M22.3 19L22.8 15.9H19.7V13.7C19.7 12.8 20 12.1 21.4 12.1H23V9.2C22.2 9.1 21.3 9 20.4 9C17.7 9 15.9 10.6 15.9 13.4V15.9H13V19H15.9V26.9C16.5 27 17.2 27.1 17.8 27.1C18.4 27.1 19.1 27 19.7 26.9V19H22.3Z" fill="#1873EB"/>
</g>
<rect x="0.5" y="0.5" width="35" height="35" rx="5.5" stroke="#ECECF2"/>
<defs>
<clipPath id="clip0_11_1401">
<rect width="36" height="36" rx="6" fill="white"/>
</clipPath>
</defs>
</svg>
