<svg width="57" height="30" viewBox="0 0 57 30" fill="none" xmlns="http://www.w3.org/2000/svg">
<path fill-rule="evenodd" clip-rule="evenodd" d="M43.4308 19.6376L44.3215 19.6144L45.0637 19.5959C44.1962 16.9331 44.4885 14.4883 46.5668 12.41C46.9193 13.5512 47.7126 14.4929 49.0579 15.1888C49.7028 15.6666 50.3244 16.2465 50.9275 16.9099C51.0342 16.4692 50.6306 15.9357 50.1342 15.3836C50.5935 15.6109 51.011 15.9264 51.3125 16.5341C51.6604 17.2393 51.6558 17.8377 51.5398 18.5985C51.4842 18.9557 51.4007 19.2851 51.2754 19.5912H52.5048C53.8037 16.8078 52.9779 12.6791 50.3198 10.9301C49.5033 10.3967 48.9188 10.4152 47.9631 10.4152C46.8683 10.4152 46.307 10.4477 45.3699 11.0693C43.9875 11.9832 43.1385 13.5651 42.7813 15.764C42.7117 16.8635 42.6607 18.7562 43.4308 19.6376ZM0 29.5049C0.106698 26.4988 4.69008 26.3782 7.50134 24.6246L9.3848 29.5049H0ZM13.1935 27.8534H13.5646C13.8986 27.8534 14.1723 27.5797 14.1723 27.2457V26.2622C14.1723 25.9282 13.8986 25.6545 13.5646 25.6545H11.3657C11.0317 25.6545 10.758 25.9282 10.758 26.2622V27.2457C10.758 27.5797 11.0317 27.8534 11.3657 27.8534H11.7414L11.4167 29.5049H13.5089L13.1935 27.8534ZM9.34768 22.5046C9.41727 21.934 7.73329 20.0552 7.42248 19.016C6.76373 17.9676 6.52714 16.8774 7.24619 15.7687C7.53382 15.328 7.4132 14.1357 7.4132 13.528C7.4132 7.49725 17.981 7.49261 17.981 13.528C17.981 14.2888 17.8047 15.2816 18.2175 15.8846C18.9088 16.8867 18.5516 18.0882 17.967 19.0206C17.5959 20.1155 15.8284 21.8876 15.9491 22.5092C16.0557 25.5988 9.32449 25.4968 9.34768 22.5046ZM26.7302 21.3216L29.3745 29.092L30.7059 24.4808L30.0518 23.771C29.7549 23.3396 29.6946 22.9685 29.8569 22.6437C30.2095 21.9479 30.9378 22.0731 31.6198 22.0731C32.3342 22.0731 33.2202 21.9386 33.4429 22.8339C33.5171 23.1355 33.4243 23.4463 33.2156 23.771L32.5615 24.4808L33.8929 29.092L36.2866 21.3216C39.3994 24.1282 45.6761 22.486 46.4369 29.5049H15.7449C16.5428 22.1103 23.5896 24.1514 26.7302 21.3216ZM24.573 11.0322C24.587 11.4683 24.8143 12.0435 25.2643 12.7069L25.2735 12.7162L26.7534 15.0635C27.3472 16.0053 27.9595 16.9563 28.7296 17.6568C29.458 18.3248 30.3487 18.7794 31.5177 18.7794C32.7888 18.7841 33.712 18.3109 34.4681 17.6057C35.2568 16.8681 35.883 15.8522 36.5 14.8362L38.1608 12.1038C38.4995 11.3337 38.6015 10.8652 38.4902 10.6379C38.4299 10.508 38.1979 10.4616 37.8268 10.4802C37.5717 10.5544 37.2701 10.5497 36.9176 10.4523L37.5902 7.87301C32.3806 8.41114 29.4487 3.5355 25.7374 7.2421L26.2292 10.2946C25.6261 10.4198 24.5359 10.0302 24.573 11.0322ZM38.5969 9.59874C38.9448 9.70544 39.2 9.90491 39.3531 10.2157C39.6036 10.7167 39.5015 11.459 39.033 12.526C39.0237 12.5445 39.0144 12.5631 39.0051 12.5816L37.3211 15.3512C36.667 16.4228 36.0083 17.499 35.1222 18.3294C34.2037 19.1923 33.0625 19.7722 31.5084 19.7629C30.0564 19.7583 28.9616 19.2062 28.0662 18.3851C27.2034 17.5965 26.5493 16.5851 25.923 15.5924L24.4478 13.245C23.9004 12.4286 23.6174 11.6817 23.5988 11.0647C23.5896 10.7678 23.6406 10.5034 23.7519 10.2621C23.8679 10.0163 24.0442 9.80286 24.2854 9.64049C24.4014 9.56626 24.5359 9.49668 24.6751 9.44565C24.5823 8.17919 24.5498 6.61119 24.6148 5.2937C24.6473 4.97361 24.7076 4.65351 24.7957 4.33342C25.1715 2.98345 26.1225 1.90255 27.2915 1.15103C27.7044 0.891242 28.1544 0.668567 28.6369 0.496922C31.4759 -0.528308 35.2336 0.0283782 37.2469 2.20873C38.068 3.09479 38.583 4.27311 38.6943 5.83183L38.5969 9.59874ZM46.8173 24.6988L47.4807 22.3886L47.1559 22.0314C47.0075 21.818 46.9797 21.6278 47.0585 21.4701C47.2348 21.1221 47.6013 21.1871 47.9399 21.1871C48.2971 21.1871 48.7379 21.1175 48.8492 21.5675C48.8863 21.7159 48.8399 21.8737 48.7379 22.036L48.4131 22.3932L49.0765 24.7035L47.9446 25.5988L46.8173 24.6988ZM52.7692 23.8963C52.2635 22.885 51.628 22.0268 50.8811 21.2242C52.2821 21.767 53.7155 22.3005 54.7733 22.9685C55.4459 23.3906 55.7985 23.7107 56.0675 24.221C56.6474 25.3112 56.7124 26.2854 56.7959 27.4684L57 29.5095H48.8121C48.5894 28.5678 48.4688 27.7792 48.0049 26.7354C49.4152 25.3344 50.9275 24.2025 52.7692 23.8963ZM42.7256 22.1334C43.5096 21.7902 44.3168 21.4933 45.022 21.2242C44.6184 21.6603 44.2473 22.1103 43.9132 22.5881C43.5375 22.4303 43.1385 22.2773 42.7256 22.1334Z" fill="#FEA500"/>
</svg>
