<svg width="33" height="31" viewBox="0 0 33 31" fill="none" xmlns="http://www.w3.org/2000/svg">
<path fill-rule="evenodd" clip-rule="evenodd" d="M5.20348 7.19555H27.1714C27.4987 7.19693 27.8122 7.32756 28.0436 7.559C28.275 7.79043 28.4056 8.10392 28.407 8.43121V17.5972C28.405 17.9241 28.274 18.2369 28.0427 18.4677C27.8113 18.6986 27.4982 18.8289 27.1714 18.8303H5.20348C4.87664 18.8289 4.56355 18.6986 4.33219 18.4677C4.10083 18.2369 3.9699 17.9241 3.96782 17.5972V8.43121C3.96851 8.1037 4.09892 7.78981 4.3305 7.55823C4.56208 7.32665 4.87597 7.19624 5.20348 7.19555ZM7.46403 21.7785H20.7559C20.8177 21.7785 20.8769 21.8028 20.9208 21.8462C20.9647 21.8896 20.9897 21.9486 20.9904 22.0103V22.8771C20.9904 22.9078 20.9844 22.9382 20.9725 22.9665C20.9607 22.9948 20.9434 23.0204 20.9216 23.042C20.8998 23.0636 20.8739 23.0806 20.8455 23.0921C20.817 23.1036 20.7866 23.1093 20.7559 23.109H7.46403C7.40254 23.109 7.34356 23.0845 7.30008 23.0411C7.2566 22.9976 7.23218 22.9386 7.23218 22.8771V22.0103C7.23286 21.949 7.25751 21.8905 7.30084 21.8471C7.34417 21.8038 7.40275 21.7791 7.46403 21.7785ZM4.59487 21.7785H5.6988C5.76007 21.7791 5.81865 21.8038 5.86198 21.8471C5.90532 21.8905 5.92996 21.949 5.93065 22.0103V22.8771C5.93065 22.9386 5.90622 22.9976 5.86274 23.0411C5.81926 23.0845 5.76029 23.109 5.6988 23.109H4.59487C4.5642 23.1093 4.53377 23.1036 4.50533 23.0921C4.4769 23.0806 4.45103 23.0636 4.42922 23.042C4.40741 23.0204 4.3901 22.9948 4.37828 22.9665C4.36646 22.9382 4.36038 22.9078 4.36038 22.8771V22.0103C4.36108 21.9486 4.38609 21.8896 4.42999 21.8462C4.47389 21.8028 4.53313 21.7785 4.59487 21.7785ZM4.68445 25.6409H27.9749C28.1541 25.6409 28.299 25.8622 28.299 26.1257V26.3022C28.299 26.5657 28.1515 26.787 27.9749 26.787H4.68445C4.50792 26.787 4.36038 26.5683 4.36038 26.3022V26.1257C4.36038 25.8622 4.50529 25.6409 4.68445 25.6409ZM30.9837 5.11942H1.39111V29.6772H30.9837V5.11942ZM21.52 1.63112C21.7248 1.63112 21.925 1.69184 22.0953 1.80562C22.2655 1.91939 22.3982 2.0811 22.4766 2.2703C22.555 2.4595 22.5755 2.66769 22.5355 2.86855C22.4956 3.0694 22.397 3.25389 22.2522 3.3987C22.1074 3.54351 21.9229 3.64212 21.722 3.68208C21.5212 3.72203 21.313 3.70152 21.1238 3.62315C20.9346 3.54478 20.7729 3.41207 20.6591 3.2418C20.5453 3.07152 20.4846 2.87133 20.4846 2.66654C20.4842 2.53047 20.5108 2.39567 20.5627 2.26989C20.6146 2.14411 20.6909 2.02983 20.7871 1.93361C20.8833 1.8374 20.9976 1.76114 21.1234 1.70923C21.2491 1.65732 21.3839 1.63077 21.52 1.63112ZM28.7864 1.63112C28.9912 1.63112 29.1914 1.69184 29.3617 1.80562C29.532 1.91939 29.6647 2.0811 29.743 2.2703C29.8214 2.4595 29.8419 2.66769 29.802 2.86855C29.762 3.0694 29.6634 3.25389 29.5186 3.3987C29.3738 3.54351 29.1893 3.64212 28.9884 3.68208C28.7876 3.72203 28.5794 3.70152 28.3902 3.62315C28.201 3.54478 28.0393 3.41207 27.9255 3.2418C27.8117 3.07152 27.751 2.87133 27.751 2.66654C27.751 2.39193 27.8601 2.12857 28.0543 1.93439C28.2485 1.74021 28.5118 1.63112 28.7864 1.63112ZM25.1532 1.63112C25.358 1.63112 25.5582 1.69184 25.7285 1.80562C25.8987 1.91939 26.0315 2.0811 26.1098 2.2703C26.1882 2.4595 26.2087 2.66769 26.1687 2.86855C26.1288 3.0694 26.0302 3.25389 25.8854 3.3987C25.7406 3.54351 25.5561 3.64212 25.3552 3.68208C25.1544 3.72203 24.9462 3.70152 24.757 3.62315C24.5678 3.54478 24.4061 3.41207 24.2923 3.2418C24.1785 3.07152 24.1178 2.87133 24.1178 2.66654C24.1178 2.39193 24.2269 2.12857 24.4211 1.93439C24.6152 1.74021 24.8786 1.63112 25.1532 1.63112ZM0.695553 0.000256118H31.6793C31.7684 -0.00219638 31.8572 0.0129845 31.9405 0.0449271C32.0237 0.0768696 32.0998 0.124945 32.1645 0.186392C32.2291 0.247838 32.281 0.321447 32.3171 0.40299C32.3532 0.484533 32.3728 0.572405 32.3749 0.661559V30.3385C32.37 30.5183 32.2941 30.6889 32.1637 30.8129C32.0333 30.9368 31.8591 31.0041 31.6793 30.9998H0.695553C0.515705 31.0041 0.341507 30.9368 0.21113 30.8129C0.0807529 30.6889 0.00483079 30.5183 0 30.3385L0 0.661559C0.00204824 0.572405 0.0216876 0.484533 0.0577902 0.40299C0.0938929 0.321447 0.145748 0.247838 0.210377 0.186392C0.275007 0.124945 0.351137 0.0768696 0.434398 0.0449271C0.517659 0.0129845 0.606409 -0.00219638 0.695553 0.000256118ZM14.4907 9.67741L18.556 12.5123C18.6259 12.5557 18.686 12.6131 18.7325 12.6809C18.7777 12.7465 18.8095 12.8203 18.8262 12.8982C18.8428 12.976 18.8439 13.0564 18.8295 13.1347C18.8151 13.213 18.7853 13.2877 18.742 13.3545C18.6987 13.4213 18.6427 13.4789 18.5771 13.524L14.5276 16.3352C14.4382 16.4081 14.3299 16.4541 14.2154 16.4679C14.1009 16.4816 13.9848 16.4625 13.8807 16.4128C13.7766 16.3631 13.6888 16.2849 13.6274 16.1872C13.5661 16.0895 13.5338 15.9763 13.5343 15.861V10.1727C13.5351 10.0619 13.5661 9.95333 13.624 9.85882C13.6819 9.7643 13.7646 9.6874 13.863 9.63642C13.9615 9.58544 14.0719 9.56231 14.1826 9.56954C14.2932 9.57676 14.3997 9.61406 14.4907 9.67741Z" fill="#FEA500"/>
</svg>
