<svg width="20" height="21" viewBox="0 0 20 21" fill="none" xmlns="http://www.w3.org/2000/svg">
<g clip-path="url(#clip0_7_386)">
<g clip-path="url(#clip1_7_386)">
<g clip-path="url(#clip2_7_386)">
<mask id="mask0_7_386" style="mask-type:luminance" maskUnits="userSpaceOnUse" x="0" y="0" width="20" height="21">
<path d="M20 10.1499C20 15.6727 15.5228 20.1499 10 20.1499C4.47715 20.1499 0 15.6727 0 10.1499C0 4.62705 4.47715 0.149902 10 0.149902C15.5228 0.149902 20 4.62705 20 10.1499Z" fill="white"/>
</mask>
<g mask="url(#mask0_7_386)">
<path d="M8.6408 13.1596L7.81698 13.9834L8.6408 14.8072L9.46461 13.9834L8.6408 13.1596ZM15.484 7.96403C15.939 7.50905 15.939 6.77138 15.484 6.3164C15.029 5.86142 14.2914 5.86142 13.8364 6.3164L15.484 7.96403ZM4.41892 10.5854L7.81698 13.9834L9.46461 12.3358L6.06655 8.93776L4.41892 10.5854ZM9.46461 13.9834L15.484 7.96403L13.8364 6.3164L7.81698 12.3358L9.46461 13.9834ZM17.6699 10.1499C17.6699 14.3859 14.236 17.8198 10 17.8198V22.48C16.8097 22.48 22.3301 16.9596 22.3301 10.1499H17.6699ZM10 17.8198C5.76405 17.8198 2.33012 14.3859 2.33012 10.1499H-2.33008C-2.33008 16.9596 3.1903 22.48 10 22.48V17.8198ZM2.33012 10.1499C2.33012 5.91395 5.76405 2.48002 10 2.48002V-2.18018C3.1903 -2.18018 -2.33008 3.3402 -2.33008 10.1499H2.33012ZM10 2.48002C14.236 2.48002 17.6699 5.91395 17.6699 10.1499H22.3301C22.3301 3.3402 16.8097 -2.18018 10 -2.18018V2.48002Z" fill="#FEA500"/>
</g>
</g>
</g>
</g>
<defs>
<clipPath id="clip0_7_386">
<rect width="20" height="20" fill="white" transform="translate(0 0.149902)"/>
</clipPath>
<clipPath id="clip1_7_386">
<rect width="20" height="20" fill="white" transform="translate(0 0.149902)"/>
</clipPath>
<clipPath id="clip2_7_386">
<rect width="20" height="20" fill="white" transform="translate(0 0.149902)"/>
</clipPath>
</defs>
</svg>
