<svg width="40" height="36" viewBox="0 0 40 36" fill="none" xmlns="http://www.w3.org/2000/svg">
<path fill-rule="evenodd" clip-rule="evenodd" d="M16.6611 30.5283C20.8937 34.5949 26.8421 35.8256 32.8067 33.2828L37.811 35.2363L36.144 31.3065C41.7049 26.8525 40.7021 20.7315 36.6128 16.5576C36.3397 18.1463 35.8027 19.6782 35.024 21.0897C33.8767 23.1386 32.3116 24.9234 30.43 26.3283C28.4993 27.7868 26.324 28.8893 24.0062 29.5841C21.6248 30.2934 19.1446 30.6144 16.6611 30.5348V30.5283ZM24.3383 11.7715C24.7685 11.7715 25.189 11.899 25.5466 12.138C25.9043 12.377 26.1831 12.7167 26.3477 13.1141C26.5123 13.5115 26.5554 13.9488 26.4714 14.3707C26.3875 14.7926 26.1804 15.1801 25.8762 15.4843C25.572 15.7884 25.1845 15.9956 24.7626 16.0795C24.3407 16.1634 23.9034 16.1203 23.506 15.9557C23.1086 15.7911 22.769 15.5124 22.53 15.1547C22.291 14.797 22.1634 14.3765 22.1634 13.9464C22.1634 13.3696 22.3926 12.8164 22.8004 12.4085C23.2083 12.0006 23.7615 11.7715 24.3383 11.7715ZM9.96385 11.7715C10.394 11.7715 10.8145 11.899 11.1722 12.138C11.5298 12.377 11.8086 12.7167 11.9732 13.1141C12.1378 13.5115 12.1809 13.9488 12.0969 14.3707C12.013 14.7926 11.8059 15.1801 11.5017 15.4843C11.1976 15.7884 10.81 15.9956 10.3881 16.0795C9.96626 16.1634 9.52896 16.1203 9.13155 15.9557C8.73414 15.7911 8.39447 15.5124 8.15549 15.1547C7.91651 14.797 7.78895 14.3765 7.78895 13.9464C7.78895 13.3696 8.01809 12.8164 8.42596 12.4085C8.83384 12.0006 9.38703 11.7715 9.96385 11.7715ZM17.1527 11.7715C17.583 11.7708 18.0038 11.8979 18.3619 12.1364C18.72 12.375 18.9993 12.7145 19.1644 13.1118C19.3295 13.5092 19.373 13.9466 19.2895 14.3687C19.2059 14.7908 18.999 15.1786 18.695 15.4831C18.391 15.7876 18.0034 15.9951 17.5815 16.0793C17.1595 16.1634 16.722 16.1206 16.3244 15.956C15.9268 15.7915 15.587 15.5128 15.3478 15.155C15.1087 14.7973 14.9811 14.3767 14.9811 13.9464C14.9811 13.3696 15.2102 12.8164 15.6181 12.4085C16.026 12.0006 16.5792 11.7715 17.156 11.7715H17.1527ZM17.5857 0.00818392C22.2806 0.15144 26.4904 1.81842 29.5021 4.4003C32.5658 7.02775 34.3858 10.5864 34.2881 14.4934C34.1709 18.4004 32.1198 21.8548 28.8997 24.2967C25.7253 26.7223 21.4276 28.1385 16.7327 28.0083C15.455 27.972 14.1832 27.8194 12.9332 27.5525C11.8213 27.3132 10.732 26.9787 9.67733 26.553L2.33218 29.4311L4.78708 23.5967C3.34951 22.3808 2.16665 20.8925 1.3066 19.2176C0.398856 17.4539 -0.0490868 15.4897 0.00426484 13.5069C0.121475 9.59986 2.17265 6.14542 5.39266 3.70029C8.56709 1.31052 12.8746 -0.122049 17.5857 0.00818392ZM17.5402 1.70121C13.2197 1.57749 9.28989 2.86355 6.41499 5.0417C3.58568 7.17101 1.79497 10.1924 1.69404 13.5524C1.64789 15.2554 2.0308 16.9427 2.80753 18.459C3.65983 20.1084 4.86079 21.5527 6.32709 22.6915L6.84151 23.0822L5.43499 26.3967L9.69361 24.7232L10.0192 24.8599C11.0746 25.3079 12.1703 25.6546 13.2913 25.8953C14.4384 26.1415 15.6056 26.2821 16.7783 26.3153C21.0825 26.4423 25.0123 25.1562 27.8872 22.9748C30.71 20.8455 32.5072 17.8273 32.6114 14.4641C32.7091 11.104 31.0974 8.00124 28.4114 5.69937C25.6765 3.34866 21.8379 1.83145 17.5434 1.70121H17.5402Z" fill="#FEA500"/>
</svg>
